<?xml version="1.0" encoding="utf-8"?>
<!-- Generator: Adobe Illustrator 21.0.0, SVG Export Plug-In . SVG Version: 6.00 Build 0)  -->
<svg version="1.1" id="Layer_1" xmlns="http://www.w3.org/2000/svg" xmlns:xlink="http://www.w3.org/1999/xlink" x="0px" y="0px"
	 viewBox="0 0 512 512" style="enable-background:new 0 0 512 512;" xml:space="preserve">
<g>
	<path d="M256,0C114.6,0,0,114.6,0,256c0,141.4,114.6,256,256,256c141.4,0,256-114.6,256-256C512,114.6,397.4,0,256,0z M268.7,380.1 l0.1,18.1c0,2.5-2.1,4.6-4.6,4.6h-16.2c-2.5,0-4.6-2.1-4.6-4.6v-17.9c-50.7-3.8-74.6-32.7-77.2-64.1c-0.2-2.7,1.9-5,4.6-5h26.4 c2.2,0,4.2,1.6,4.5,3.8c2.9,18.1,17,31.7,42.3,35v-81.5l-14.1-3.6c-29.9-7.1-58.3-25.8-58.3-64.4c0-41.7,31.7-64.1,72.1-68v-18.9 c0-2.5,2.1-4.6,4.6-4.6h16.1c2.5,0,4.6,2.1,4.6,4.6v18.7c39.1,3.9,68.5,26.8,71.9,62.4c0.3,2.7-1.8,5-4.6,5h-25.7	c-2.3,0-4.2-1.7-4.5-3.9c-2.3-16.7-15.7-30.3-37.4-33.3v76.7l14.5,3.4c37,9.1,62.2,26.9,62.2,66.5 C345.5,352.2,313.5,376.2,268.7,380.1z M207.2,197.9c0,14.5,9,25.8,28.3,32.7c2.7,1.1,5.4,1.9,8.6,2.9v-70.9 C223,165.3,207.2,177.1,207.2,197.9z M273.8,275.1c-1.6-0.3-3.2-0.7-5-1.3v76.4c24.3-2.2,41.1-15.5,41.1-37.9 C309.9,294.8,300.8,283.4,273.8,275.1z"/>
</g>
</svg>
